# xmcd CD database file
#
# Track frame offsets:
#	150
#	20467
#	36890
#	62312
#	81232
#	103660
#	129150
#	148822
#	165445
#	184207
#
# Disc length: 2694 seconds
#
# Revision: 0
# Processed by: cddbd v1.5PL3 Copyright (c) Steve Scherf et al.
# Submitted via: CDex 1.51
#
DISCID=7c0a840a
DTITLE=Amphibian - DOPPELGANGER
DYEAR=1900
DGENRE=Rock
TTITLE0=嘆きの十字架
TTITLE1=MAYBE
TTITLE2=舞姫
TTITLE3=CHURCH
TTITLE4=LABYRINTH 〜殺意の迷宮〜
TTITLE5=七つの扉
TTITLE6=J J
TTITLE7=無尽の部屋
TTITLE8=La-mu
TTITLE9=EASY ACTION
EXTD=
EXTT0=
EXTT1=
EXTT2=
EXTT3=
EXTT4=
EXTT5=
EXTT6=
EXTT7=
EXTT8=
EXTT9=
PLAYORDER=
